<svg width="74" height="75" xmlns="http://www.w3.org/2000/svg" xmlns:xlink="http://www.w3.org/1999/xlink" xml:space="preserve" overflow="hidden"><defs><clipPath id="clip0"><rect x="81" y="523" width="74" height="75"/></clipPath></defs><g clip-path="url(#clip0)" transform="translate(-81 -523)"><path d="M22.2771 28.5208 60.8958 28.5208 60.8958 24.6667C60.8958 22.9708 59.5083 21.5833 57.8125 21.5833L34.6875 21.5833 26.2083 15.9563C25.6687 15.6479 25.1292 15.4167 24.5125 15.4167L10.0208 15.4167C8.325 15.4167 6.9375 16.8042 6.9375 18.5L6.9375 56.2708C6.9375 56.425 16.8812 32.1437 16.8812 32.1437 17.8062 29.9854 19.8875 28.5208 22.2771 28.5208Z" fill="#E5352C" transform="matrix(1 0 0 1.01351 81 523)"/><path d="M67.0625 34.6875C67.0625 33.0687 65.9062 31.7583 64.2875 31.6042L22.2771 31.6042C21.1208 31.6042 20.1187 32.2979 19.6562 33.3L9.25 58.5833 56.2708 58.5833 66.7542 36.075C66.9854 35.6125 67.0625 35.15 67.0625 34.6875L67.0625 34.6875Z" fill="#E5352C" transform="matrix(1 0 0 1.01351 81 523)"/></g></svg>